<svg xmlns="http://www.w3.org/2000/svg" viewBox="0 0 1440 320">
  <path fill="#0099ff" fill-opacity="1" d="M0,256L16,234.7C32,213,64,171,96,133.3C128,96,160,64,192,90.7C224,117,256,203,288,218.7C320,235,352,181,384,160C416,139,448,149,480,176C512,203,544,245,576,224C608,203,640,117,672,96C704,75,736,117,768,165.3C800,213,832,267,864,272C896,277,928,235,960,229.3C992,224,1024,256,1056,256C1088,256,1120,224,1152,208C1184,192,1216,192,1248,197.3C1280,203,1312,213,1344,229.3C1376,245,1408,267,1424,277.3L1440,288L1440,320L1424,320C1408,320,1376,320,1344,320C1312,320,1280,320,1248,320C1216,320,1184,320,1152,320C1120,320,1088,320,1056,320C1024,320,992,320,960,320C928,320,896,320,864,320C832,320,800,320,768,320C736,320,704,320,672,320C640,320,608,320,576,320C544,320,512,320,480,320C448,320,416,320,384,320C352,320,320,320,288,320C256,320,224,320,192,320C160,320,128,320,96,320C64,320,32,320,16,320L0,320Z"></path>
</svg>